<?xml version="1.0" encoding="UTF-8" standalone="no"?>
<!DOCTYPE svg PUBLIC "-//W3C//DTD SVG 1.1//EN"
 "http://www.w3.org/Graphics/SVG/1.1/DTD/svg11.dtd">
<!-- Generated by graphviz version 2.30.1 (20180828.1746)
 -->
<!-- Title: %3 Pages: 1 -->
<svg width="585pt" height="404pt"
 viewBox="0.00 0.00 585.00 404.00" xmlns="http://www.w3.org/2000/svg" xmlns:xlink="http://www.w3.org/1999/xlink">
<g id="graph0" class="graph" transform="scale(1 1) rotate(0) translate(4 400)">
<title>%3</title>
<polygon fill="white" stroke="white" points="-4,5 -4,-400 582,-400 582,5 -4,5"/>
<!-- jqt -->
<g id="node1" class="node"><title>jqt</title>
<ellipse fill="none" stroke="black" cx="83" cy="-306" rx="27" ry="18"/>
<text text-anchor="middle" x="83" y="-302.3" font-family="Times,serif" font-size="14.00">jqt</text>
</g>
<!-- rhn -->
<g id="node2" class="node"><title>rhn</title>
<ellipse fill="none" stroke="black" cx="83" cy="-234" rx="27" ry="18"/>
<text text-anchor="middle" x="83" y="-230.3" font-family="Times,serif" font-size="14.00">rhn</text>
</g>
<!-- jqt&#45;&#45;rhn -->
<g id="edge1" class="edge"><title>jqt&#45;&#45;rhn</title>
<path fill="none" stroke="black" d="M83,-287.697C83,-276.846 83,-262.917 83,-252.104"/>
</g>
<!-- xhk -->
<g id="node3" class="node"><title>xhk</title>
<ellipse fill="none" stroke="black" cx="27" cy="-90" rx="27.4223" ry="18"/>
<text text-anchor="middle" x="27" y="-86.3" font-family="Times,serif" font-size="14.00">xhk</text>
</g>
<!-- jqt&#45;&#45;xhk -->
<g id="edge2" class="edge"><title>jqt&#45;&#45;xhk</title>
<path fill="none" stroke="black" d="M69.8434,-289.866C61.8698,-279.817 52.2525,-265.949 47,-252 28.2407,-202.181 26.2795,-138.168 26.5379,-108.074"/>
</g>
<!-- nvd -->
<g id="node4" class="node"><title>nvd</title>
<ellipse fill="none" stroke="black" cx="325" cy="-90" rx="27.4223" ry="18"/>
<text text-anchor="middle" x="325" y="-86.3" font-family="Times,serif" font-size="14.00">nvd</text>
</g>
<!-- jqt&#45;&#45;nvd -->
<g id="edge3" class="edge"><title>jqt&#45;&#45;nvd</title>
<path fill="none" stroke="black" d="M98.8783,-290.959C142.832,-252.09 265.732,-143.41 309.378,-104.815"/>
</g>
<!-- rhn&#45;&#45;xhk -->
<g id="edge12" class="edge"><title>rhn&#45;&#45;xhk</title>
<path fill="none" stroke="black" d="M76.4665,-216.433C65.7336,-189.217 44.4839,-135.334 33.6655,-107.902"/>
</g>
<!-- bvb -->
<g id="node13" class="node"><title>bvb</title>
<ellipse fill="none" stroke="black" cx="139" cy="-162" rx="27.4223" ry="18"/>
<text text-anchor="middle" x="139" y="-158.3" font-family="Times,serif" font-size="14.00">bvb</text>
</g>
<!-- rhn&#45;&#45;bvb -->
<g id="edge13" class="edge"><title>rhn&#45;&#45;bvb</title>
<path fill="none" stroke="black" d="M95.1512,-217.811C104.544,-206.07 117.485,-189.893 126.873,-178.159"/>
</g>
<!-- hfx -->
<g id="node9" class="node"><title>hfx</title>
<ellipse fill="none" stroke="black" cx="139" cy="-18" rx="27" ry="18"/>
<text text-anchor="middle" x="139" y="-14.3" font-family="Times,serif" font-size="14.00">hfx</text>
</g>
<!-- rhn&#45;&#45;hfx -->
<g id="edge14" class="edge"><title>rhn&#45;&#45;hfx</title>
<path fill="none" stroke="black" d="M86.252,-215.847C89.7583,-197.857 95.6911,-168.806 102,-144 111.93,-104.958 125.939,-59.7762 133.554,-35.8682"/>
</g>
<!-- xhk&#45;&#45;hfx -->
<g id="edge7" class="edge"><title>xhk&#45;&#45;hfx</title>
<path fill="none" stroke="black" d="M46.2535,-76.9666C66.893,-64.0669 99.4557,-43.7152 119.998,-30.8764"/>
</g>
<!-- lhk -->
<g id="node12" class="node"><title>lhk</title>
<ellipse fill="none" stroke="black" cx="372" cy="-18" rx="27" ry="18"/>
<text text-anchor="middle" x="372" y="-14.3" font-family="Times,serif" font-size="14.00">lhk</text>
</g>
<!-- nvd&#45;&#45;lhk -->
<g id="edge25" class="edge"><title>nvd&#45;&#45;lhk</title>
<path fill="none" stroke="black" d="M335.665,-73.1159C343.357,-61.66 353.695,-46.2627 361.377,-34.8212"/>
</g>
<!-- rsh -->
<g id="node5" class="node"><title>rsh</title>
<ellipse fill="none" stroke="black" cx="459" cy="-306" rx="27" ry="18"/>
<text text-anchor="middle" x="459" y="-302.3" font-family="Times,serif" font-size="14.00">rsh</text>
</g>
<!-- frs -->
<g id="node6" class="node"><title>frs</title>
<ellipse fill="none" stroke="black" cx="423" cy="-234" rx="27" ry="18"/>
<text text-anchor="middle" x="423" y="-230.3" font-family="Times,serif" font-size="14.00">frs</text>
</g>
<!-- rsh&#45;&#45;frs -->
<g id="edge4" class="edge"><title>rsh&#45;&#45;frs</title>
<path fill="none" stroke="black" d="M450.65,-288.765C444.835,-277.456 437.11,-262.437 431.304,-251.147"/>
</g>
<!-- pzl -->
<g id="node7" class="node"><title>pzl</title>
<ellipse fill="none" stroke="black" cx="495" cy="-234" rx="27" ry="18"/>
<text text-anchor="middle" x="495" y="-230.3" font-family="Times,serif" font-size="14.00">pzl</text>
</g>
<!-- rsh&#45;&#45;pzl -->
<g id="edge5" class="edge"><title>rsh&#45;&#45;pzl</title>
<path fill="none" stroke="black" d="M467.35,-288.765C473.165,-277.456 480.89,-262.437 486.696,-251.147"/>
</g>
<!-- lsr -->
<g id="node8" class="node"><title>lsr</title>
<ellipse fill="none" stroke="black" cx="550" cy="-162" rx="27" ry="18"/>
<text text-anchor="middle" x="550" y="-158.3" font-family="Times,serif" font-size="14.00">lsr</text>
</g>
<!-- rsh&#45;&#45;lsr -->
<g id="edge6" class="edge"><title>rsh&#45;&#45;lsr</title>
<path fill="none" stroke="black" d="M480.313,-294.782C496.721,-285.799 518.624,-271.169 531,-252 545.226,-229.966 548.991,-199.085 549.881,-180.096"/>
</g>
<!-- qnr -->
<g id="node11" class="node"><title>qnr</title>
<ellipse fill="none" stroke="black" cx="364" cy="-162" rx="27" ry="18"/>
<text text-anchor="middle" x="364" y="-158.3" font-family="Times,serif" font-size="14.00">qnr</text>
</g>
<!-- frs&#45;&#45;qnr -->
<g id="edge31" class="edge"><title>frs&#45;&#45;qnr</title>
<path fill="none" stroke="black" d="M410.198,-217.811C400.302,-206.07 386.667,-189.893 376.777,-178.159"/>
</g>
<!-- frs&#45;&#45;lhk -->
<g id="edge32" class="edge"><title>frs&#45;&#45;lhk</title>
<path fill="none" stroke="black" d="M418.913,-215.849C409.34,-175.68 385.558,-75.8902 376.036,-35.9354"/>
</g>
<!-- frs&#45;&#45;lsr -->
<g id="edge33" class="edge"><title>frs&#45;&#45;lsr</title>
<path fill="none" stroke="black" d="M443.124,-221.908C466.764,-208.878 505.769,-187.379 529.55,-174.272"/>
</g>
<!-- pzl&#45;&#45;lsr -->
<g id="edge17" class="edge"><title>pzl&#45;&#45;lsr</title>
<path fill="none" stroke="black" d="M506.934,-217.811C516.16,-206.07 528.87,-189.893 538.089,-178.159"/>
</g>
<!-- pzl&#45;&#45;hfx -->
<g id="edge18" class="edge"><title>pzl&#45;&#45;hfx</title>
<path fill="none" stroke="black" d="M486.93,-216.79C469.283,-183.26 423.767,-106.537 361,-72 296.775,-36.6608 209.439,-24.7195 165.936,-20.8141"/>
</g>
<!-- pzl&#45;&#45;nvd -->
<g id="edge19" class="edge"><title>pzl&#45;&#45;nvd</title>
<path fill="none" stroke="black" d="M480.759,-218.475C462.656,-200.296 430.128,-168.563 400,-144 381.711,-129.089 359.502,-113.705 344.017,-103.378"/>
</g>
<!-- lsr&#45;&#45;lhk -->
<g id="edge26" class="edge"><title>lsr&#45;&#45;lhk</title>
<path fill="none" stroke="black" d="M533.254,-147.641C499.242,-120.508 422.437,-59.2361 388.572,-32.2201"/>
</g>
<!-- cmg -->
<g id="node10" class="node"><title>cmg</title>
<ellipse fill="none" stroke="black" cx="309" cy="-234" rx="30.3206" ry="18"/>
<text text-anchor="middle" x="309" y="-230.3" font-family="Times,serif" font-size="14.00">cmg</text>
</g>
<!-- cmg&#45;&#45;qnr -->
<g id="edge8" class="edge"><title>cmg&#45;&#45;qnr</title>
<path fill="none" stroke="black" d="M321.206,-217.465C330.321,-205.865 342.722,-190.082 351.828,-178.492"/>
</g>
<!-- cmg&#45;&#45;nvd -->
<g id="edge9" class="edge"><title>cmg&#45;&#45;nvd</title>
<path fill="none" stroke="black" d="M310.93,-215.871C314.005,-188.578 319.984,-135.52 323.063,-108.189"/>
</g>
<!-- cmg&#45;&#45;lhk -->
<g id="edge10" class="edge"><title>cmg&#45;&#45;lhk</title>
<path fill="none" stroke="black" d="M300.598,-216.251C286.487,-185.563 262.001,-119.146 288,-72 300.657,-49.0484 327.897,-34.6673 347.941,-26.7705"/>
</g>
<!-- cmg&#45;&#45;bvb -->
<g id="edge11" class="edge"><title>cmg&#45;&#45;bvb</title>
<path fill="none" stroke="black" d="M284.643,-222.971C251.775,-209.437 193.665,-185.509 161.682,-172.34"/>
</g>
<!-- qnr&#45;&#45;nvd -->
<g id="edge20" class="edge"><title>qnr&#45;&#45;nvd</title>
<path fill="none" stroke="black" d="M354.955,-144.765C348.654,-133.456 340.286,-118.437 333.996,-107.147"/>
</g>
<!-- bvb&#45;&#45;xhk -->
<g id="edge15" class="edge"><title>bvb&#45;&#45;xhk</title>
<path fill="none" stroke="black" d="M119.747,-148.967C99.2321,-136.145 66.9386,-115.962 46.3771,-103.111"/>
</g>
<!-- bvb&#45;&#45;hfx -->
<g id="edge16" class="edge"><title>bvb&#45;&#45;hfx</title>
<path fill="none" stroke="black" d="M139,-143.871C139,-116.578 139,-63.5205 139,-36.1893"/>
</g>
<!-- ntq -->
<g id="node14" class="node"><title>ntq</title>
<ellipse fill="none" stroke="black" cx="110" cy="-378" rx="27" ry="18"/>
<text text-anchor="middle" x="110" y="-374.3" font-family="Times,serif" font-size="14.00">ntq</text>
</g>
<!-- ntq&#45;&#45;jqt -->
<g id="edge21" class="edge"><title>ntq&#45;&#45;jqt</title>
<path fill="none" stroke="black" d="M103.601,-360.411C99.3597,-349.414 93.8106,-335.027 89.5403,-323.956"/>
</g>
<!-- ntq&#45;&#45;hfx -->
<g id="edge22" class="edge"><title>ntq&#45;&#45;hfx</title>
<path fill="none" stroke="black" d="M125.59,-362.942C150.129,-339.187 195,-288.441 195,-235 195,-235 195,-235 195,-161 195,-112.239 166.07,-60.2145 149.797,-34.8078"/>
</g>
<!-- ntq&#45;&#45;bvb -->
<g id="edge23" class="edge"><title>ntq&#45;&#45;bvb</title>
<path fill="none" stroke="black" d="M113.113,-359.845C114.943,-349.484 117.236,-336.004 119,-324 126.657,-271.889 133.799,-210.002 137.093,-180.426"/>
</g>
<!-- ntq&#45;&#45;xhk -->
<g id="edge24" class="edge"><title>ntq&#45;&#45;xhk</title>
<path fill="none" stroke="black" d="M90.2993,-365.67C75.9603,-356.353 57.3163,-341.81 47,-324 5.7918,-252.858 17.2621,-148.475 23.8561,-107.954"/>
</g>
<!-- rzs -->
<g id="node15" class="node"><title>rzs</title>
<ellipse fill="none" stroke="black" cx="413" cy="-378" rx="27" ry="18"/>
<text text-anchor="middle" x="413" y="-374.3" font-family="Times,serif" font-size="14.00">rzs</text>
</g>
<!-- rzs&#45;&#45;qnr -->
<g id="edge27" class="edge"><title>rzs&#45;&#45;qnr</title>
<path fill="none" stroke="black" d="M409.073,-359.849C399.875,-319.68 377.026,-219.89 367.878,-179.935"/>
</g>
<!-- rzs&#45;&#45;cmg -->
<g id="edge28" class="edge"><title>rzs&#45;&#45;cmg</title>
<path fill="none" stroke="black" d="M395.392,-364.065C382.74,-354.132 365.887,-339.523 354,-324 336.525,-301.181 322.792,-270.533 315.295,-251.805"/>
</g>
<!-- rzs&#45;&#45;lsr -->
<g id="edge29" class="edge"><title>rzs&#45;&#45;lsr</title>
<path fill="none" stroke="black" d="M434.206,-366.686C467.823,-348.872 531.539,-308.719 551,-252 559.224,-228.03 556.501,-198.246 553.481,-179.934"/>
</g>
<!-- rzs&#45;&#45;rsh -->
<g id="edge30" class="edge"><title>rzs&#45;&#45;rsh</title>
<path fill="none" stroke="black" d="M423.438,-361.116C430.966,-349.66 441.085,-334.263 448.603,-322.821"/>
</g>
</g>
</svg>
